<?xml version="1.0" encoding="UTF-8"?><svg xmlns="http://www.w3.org/2000/svg" xmlns:latexdraw="http://latexdraw.sourceforge.net/namespaces/latexdraw" version="1.1" baseProfile="full">
    <g>
        <g id="id1678080759" latexdraw:type="grid" latexdraw:XLabelsSouth="true" latexdraw:YLabelsWest="true" latexdraw:gridUnit="1.0" latexdraw:gridEnd="6.0 7.0" latexdraw:gridStart="0.0 0.0" latexdraw:origin="0.0 0.0" transform="translate(400.0 450.0)">
            <g stroke-width="0.7055555555555556" stroke="white" stroke-linecap="round" latexdraw:type="subGrid" latexdraw:gridDots="0" latexdraw:subDiv="5.0">
                <line x1="0.0" x2="0.0" y1="0.0" y2="-350.0"/>
                <line x1="10.0" x2="10.0" y1="0.0" y2="-350.0"/>
                <line x1="20.0" x2="20.0" y1="0.0" y2="-350.0"/>
                <line x1="30.0" x2="30.0" y1="0.0" y2="-350.0"/>
                <line x1="40.0" x2="40.0" y1="0.0" y2="-350.0"/>
                <line x1="50.0" x2="50.0" y1="0.0" y2="-350.0"/>
                <line x1="50.0" x2="50.0" y1="0.0" y2="-350.0"/>
                <line x1="60.0" x2="60.0" y1="0.0" y2="-350.0"/>
                <line x1="70.0" x2="70.0" y1="0.0" y2="-350.0"/>
                <line x1="80.0" x2="80.0" y1="0.0" y2="-350.0"/>
                <line x1="90.0" x2="90.0" y1="0.0" y2="-350.0"/>
                <line x1="100.0" x2="100.0" y1="0.0" y2="-350.0"/>
                <line x1="100.0" x2="100.0" y1="0.0" y2="-350.0"/>
                <line x1="110.0" x2="110.0" y1="0.0" y2="-350.0"/>
                <line x1="120.0" x2="120.0" y1="0.0" y2="-350.0"/>
                <line x1="130.0" x2="130.0" y1="0.0" y2="-350.0"/>
                <line x1="140.0" x2="140.0" y1="0.0" y2="-350.0"/>
                <line x1="150.0" x2="150.0" y1="0.0" y2="-350.0"/>
                <line x1="150.0" x2="150.0" y1="0.0" y2="-350.0"/>
                <line x1="160.0" x2="160.0" y1="0.0" y2="-350.0"/>
                <line x1="170.0" x2="170.0" y1="0.0" y2="-350.0"/>
                <line x1="180.0" x2="180.0" y1="0.0" y2="-350.0"/>
                <line x1="190.0" x2="190.0" y1="0.0" y2="-350.0"/>
                <line x1="200.0" x2="200.0" y1="0.0" y2="-350.0"/>
                <line x1="200.0" x2="200.0" y1="0.0" y2="-350.0"/>
                <line x1="210.0" x2="210.0" y1="0.0" y2="-350.0"/>
                <line x1="220.0" x2="220.0" y1="0.0" y2="-350.0"/>
                <line x1="230.0" x2="230.0" y1="0.0" y2="-350.0"/>
                <line x1="240.0" x2="240.0" y1="0.0" y2="-350.0"/>
                <line x1="250.0" x2="250.0" y1="0.0" y2="-350.0"/>
                <line x1="250.0" x2="250.0" y1="0.0" y2="-350.0"/>
                <line x1="260.0" x2="260.0" y1="0.0" y2="-350.0"/>
                <line x1="270.0" x2="270.0" y1="0.0" y2="-350.0"/>
                <line x1="280.0" x2="280.0" y1="0.0" y2="-350.0"/>
                <line x1="290.0" x2="290.0" y1="0.0" y2="-350.0"/>
                <line x1="300.0" x2="300.0" y1="0.0" y2="-350.0"/>
                <line x1="0.0" x2="300.0" y1="-0.0" y2="-0.0"/>
                <line x1="0.0" x2="300.0" y1="-10.0" y2="-10.0"/>
                <line x1="0.0" x2="300.0" y1="-20.0" y2="-20.0"/>
                <line x1="0.0" x2="300.0" y1="-30.0" y2="-30.0"/>
                <line x1="0.0" x2="300.0" y1="-40.0" y2="-40.0"/>
                <line x1="0.0" x2="300.0" y1="-50.0" y2="-50.0"/>
                <line x1="0.0" x2="300.0" y1="-50.0" y2="-50.0"/>
                <line x1="0.0" x2="300.0" y1="-60.0" y2="-60.0"/>
                <line x1="0.0" x2="300.0" y1="-70.0" y2="-70.0"/>
                <line x1="0.0" x2="300.0" y1="-80.0" y2="-80.0"/>
                <line x1="0.0" x2="300.0" y1="-90.0" y2="-90.0"/>
                <line x1="0.0" x2="300.0" y1="-100.0" y2="-100.0"/>
                <line x1="0.0" x2="300.0" y1="-100.0" y2="-100.0"/>
                <line x1="0.0" x2="300.0" y1="-110.0" y2="-110.0"/>
                <line x1="0.0" x2="300.0" y1="-120.0" y2="-120.0"/>
                <line x1="0.0" x2="300.0" y1="-130.0" y2="-130.0"/>
                <line x1="0.0" x2="300.0" y1="-140.0" y2="-140.0"/>
                <line x1="0.0" x2="300.0" y1="-150.0" y2="-150.0"/>
                <line x1="0.0" x2="300.0" y1="-150.0" y2="-150.0"/>
                <line x1="0.0" x2="300.0" y1="-160.0" y2="-160.0"/>
                <line x1="0.0" x2="300.0" y1="-170.0" y2="-170.0"/>
                <line x1="0.0" x2="300.0" y1="-180.0" y2="-180.0"/>
                <line x1="0.0" x2="300.0" y1="-190.0" y2="-190.0"/>
                <line x1="0.0" x2="300.0" y1="-200.0" y2="-200.0"/>
                <line x1="0.0" x2="300.0" y1="-200.0" y2="-200.0"/>
                <line x1="0.0" x2="300.0" y1="-210.0" y2="-210.0"/>
                <line x1="0.0" x2="300.0" y1="-220.0" y2="-220.0"/>
                <line x1="0.0" x2="300.0" y1="-230.0" y2="-230.0"/>
                <line x1="0.0" x2="300.0" y1="-240.0" y2="-240.0"/>
                <line x1="0.0" x2="300.0" y1="-250.0" y2="-250.0"/>
                <line x1="0.0" x2="300.0" y1="-250.0" y2="-250.0"/>
                <line x1="0.0" x2="300.0" y1="-260.0" y2="-260.0"/>
                <line x1="0.0" x2="300.0" y1="-270.0" y2="-270.0"/>
                <line x1="0.0" x2="300.0" y1="-280.0" y2="-280.0"/>
                <line x1="0.0" x2="300.0" y1="-290.0" y2="-290.0"/>
                <line x1="0.0" x2="300.0" y1="-300.0" y2="-300.0"/>
                <line x1="0.0" x2="300.0" y1="-300.0" y2="-300.0"/>
                <line x1="0.0" x2="300.0" y1="-310.0" y2="-310.0"/>
                <line x1="0.0" x2="300.0" y1="-320.0" y2="-320.0"/>
                <line x1="0.0" x2="300.0" y1="-330.0" y2="-330.0"/>
                <line x1="0.0" x2="300.0" y1="-340.0" y2="-340.0"/>
                <line x1="0.0" x2="300.0" y1="-350.0" y2="-350.0"/>
            </g>
            <g stroke-width="1.4111111111111112" stroke="black" stroke-linecap="square" latexdraw:type="grid">
                <line x1="0.0" x2="0.0" y1="0.0" y2="-350.0"/>
                <line x1="50.0" x2="50.0" y1="0.0" y2="-350.0"/>
                <line x1="100.0" x2="100.0" y1="0.0" y2="-350.0"/>
                <line x1="150.0" x2="150.0" y1="0.0" y2="-350.0"/>
                <line x1="200.0" x2="200.0" y1="0.0" y2="-350.0"/>
                <line x1="250.0" x2="250.0" y1="0.0" y2="-350.0"/>
                <line x1="300.0" x2="300.0" y1="0.0" y2="-350.0"/>
                <line x1="0.0" x2="300.0" y1="-0.0" y2="-0.0"/>
                <line x1="0.0" x2="300.0" y1="-50.0" y2="-50.0"/>
                <line x1="0.0" x2="300.0" y1="-100.0" y2="-100.0"/>
                <line x1="0.0" x2="300.0" y1="-150.0" y2="-150.0"/>
                <line x1="0.0" x2="300.0" y1="-200.0" y2="-200.0"/>
                <line x1="0.0" x2="300.0" y1="-250.0" y2="-250.0"/>
                <line x1="0.0" x2="300.0" y1="-300.0" y2="-300.0"/>
                <line x1="0.0" x2="300.0" y1="-350.0" y2="-350.0"/>
            </g>
            <g font-size="10" stroke="black" latexdraw:type="text">
                <text x="3" y="10">0</text>
                <text x="53" y="10">1</text>
                <text x="103" y="10">2</text>
                <text x="153" y="10">3</text>
                <text x="203" y="10">4</text>
                <text x="253" y="10">5</text>
                <text x="303" y="10">6</text>
                <text x="-9" y="-353">7</text>
                <text x="-9" y="-303">6</text>
                <text x="-9" y="-253">5</text>
                <text x="-9" y="-203">4</text>
                <text x="-9" y="-153">3</text>
                <text x="-9" y="-103">2</text>
                <text x="-9" y="-53">1</text>
                <text x="-9" y="-3">0</text>
            </g>
        </g>
        <g latexdraw:type="circle" id="id670166686">
            <circle cx="500.0" cy="150.0" r="9.0" latexdraw:borderPos="outer" stroke-width="2.0" stroke="black" fill="black"/>
        </g>
        <g latexdraw:type="rectangle" id="id1803837540">
            <rect x="452.5" y="252.5" width="195.0" height="145.0" latexdraw:borderPos="outer" stroke-width="5.0" stroke="blue" fill="none"/>
        </g>
        <g latexdraw:type="rectangle" id="id293577618">
            <rect x="552.5" y="102.5" width="95.0" height="95.0" latexdraw:borderPos="outer" stroke-width="5.0" stroke="red" fill="none"/>
        </g>
    </g>
    <defs/>
    <metadata>
        <latexdraw:metadata>
            <latexdraw:latexIncludes/>
            <latexdraw:displayXScale>true</latexdraw:displayXScale>
            <latexdraw:displayYScale>true</latexdraw:displayYScale>
            <latexdraw:unit>CM</latexdraw:unit>
            <latexdraw:zoom>1.0</latexdraw:zoom>
            <latexdraw:magneticGridStyle>CUSTOMISED</latexdraw:magneticGridStyle>
            <latexdraw:gridGap>10</latexdraw:gridGap>
            <latexdraw:magneticGrid>true</latexdraw:magneticGrid>
            <latexdraw:version>3.3.8</latexdraw:version>
            <latexdraw:size>
                <latexdraw:width>1321</latexdraw:width>
                <latexdraw:height>743</latexdraw:height>
            </latexdraw:size>
            <latexdraw:position>
                <latexdraw:x>59.0</latexdraw:x>
                <latexdraw:y>30.0</latexdraw:y>
            </latexdraw:position>
        </latexdraw:metadata>
    </metadata>
</svg>
